<?xml version="1.0" encoding="UTF-8" standalone="no"?>
<svg width="448px" height="384px" viewBox="0 0 448 384" version="1.1" xmlns="http://www.w3.org/2000/svg" xmlns:xlink="http://www.w3.org/1999/xlink" xmlns:sketch="http://www.bohemiancoding.com/sketch/ns">
    <!-- Generator: Sketch 3.5.2 (25235) - http://www.bohemiancoding.com/sketch -->
    <title>social-octocat</title>
    <desc>Created with Sketch.</desc>
    <defs></defs>
    <g id="Page" stroke="none" stroke-width="1" fill="none" fill-rule="evenodd" sketch:type="MSPage">
        <g id="Ionic" sketch:type="MSArtboardGroup" transform="translate(-14736.000000, -12489.000000)" fill="#231F20">
            <g id="social-octocat" sketch:type="MSLayerGroup" transform="translate(14736.000000, 12489.000000)">
                <g id="Group" sketch:type="MSShapeGroup">
                    <path d="M146.354,223.478 C137.231,223.478 129.426,227.685 123.153,236.311 C116.862,244.789 113.755,255.284 113.755,267.742 C113.755,280.216 116.921,290.75 123.153,299.251 C129.426,307.791 137.192,312.022 146.354,312.022 C154.848,312.022 162.243,307.752 168.475,299.251 C174.746,290.75 177.873,280.216 177.873,267.742 C177.873,255.323 174.707,244.812 168.475,236.311 C162.242,227.724 154.908,223.478 146.354,223.478 L146.354,223.478 Z" id="Shape"></path>
                    <path d="M302.668,223.478 C293.623,223.478 285.777,227.685 279.486,236.311 C273.215,244.789 270.127,255.284 270.127,267.742 C270.127,280.216 273.313,290.75 279.486,299.251 C285.777,307.791 293.584,312.022 302.668,312.022 C311.201,312.022 318.574,307.752 324.846,299.251 C331.139,290.75 334.264,280.216 334.264,267.742 C334.264,255.323 331.1,244.812 324.846,236.311 C318.574,227.724 311.299,223.478 302.668,223.478 L302.668,223.478 Z" id="Shape"></path>
                    <path d="M413.777,108 L413.718,108 C413.718,108 416.511,93.736 414.032,68.82 C411.85,43.904 406.561,20.982 397.909,0 C397.909,0 393.487,0.76 385.149,2.896 C376.811,5.032 363.069,9.195 344.211,17.664 C325.67,26.204 306.225,37.452 285.914,51.169 C272.111,47.235 251.506,45.23 223.92,45.23 C197.631,45.23 177.006,47.242 161.943,51.175 C117.351,20.316 80.111,3.23 49.851,1.42108547e-14 C41.257,20.982 35.968,43.991 33.806,68.97 C31.408,93.909 34.238,108.299 34.238,108.299 C9.979,134.551 -2.84217094e-14,172.541 -2.84217094e-14,203.793 C-2.84217094e-14,228.037 0.658,249.871 6.125,269.273 C11.689,288.583 18.787,304.403 27.223,316.494 C35.834,328.615 46.235,339.282 58.799,348.432 C71.266,357.746 82.787,364.394 93.188,368.648 C103.649,373.02 115.563,376.25 129.17,378.509 C142.5,380.895 152.608,382.154 159.647,382.505 C159.647,382.505 187.647,383.999 224.001,383.999 C260.355,383.999 288.296,382.505 288.296,382.505 C295.316,382.153 305.441,380.871 318.831,378.509 C332.378,376.21 344.352,372.902 354.772,368.648 C365.174,364.355 376.715,357.747 389.241,348.432 C401.764,339.4 412.147,328.693 420.759,316.494 C429.195,304.403 436.253,288.583 441.857,269.273 C447.343,249.871 448.002,227.888 448.002,203.644 C448,173.389 437.982,135 413.777,108 L413.777,108 Z M348.383,341.645 C320.521,354.736 279.486,360 225.061,360 L222.918,359.961 C168.475,359.961 127.557,354.713 100.07,341.551 C72.562,328.459 58.799,301.494 58.799,260.813 C58.799,236.483 67.371,216.823 84.281,201.706 C91.635,195.191 100.719,190.687 111.926,187.989 C123.055,185.431 133.28,185.227 142.895,185.524 C152.293,185.939 165.446,187.72 182.239,188.988 C199.029,190.285 211.535,192 224,192 C235.698,192 251.213,190.043 276.104,188.041 C301.094,186.07 319.598,185.07 331.571,187.041 C343.86,189.043 354.557,193.243 363.7,201.783 C381.434,217.534 390.302,237.288 390.302,260.867 C390.301,301.533 376.164,328.537 348.383,341.645 L348.383,341.645 Z" id="Shape"></path>
                </g>
            </g>
        </g>
    </g>
</svg>