<?xml version="1.0" encoding="UTF-8" standalone="no"?>
<svg width="683px" height="136px" viewBox="0 0 683 136" version="1.1" xmlns="http://www.w3.org/2000/svg" xmlns:xlink="http://www.w3.org/1999/xlink" xmlns:sketch="http://www.bohemiancoding.com/sketch/ns">
    <!-- Generator: Sketch 3.5.2 (25235) - http://www.bohemiancoding.com/sketch -->
    <title>kastelo labs</title>
    <desc>Created with Sketch.</desc>
    <defs></defs>
    <g id="Page-1" stroke="none" stroke-width="1" fill="none" fill-rule="non-zero" sketch:type="MSPage">
        <path d="M23.7460938,95.6953125 C25.4336022,93.5390517 27.2851462,91.1718879 29.3007812,88.59375 C31.3164163,86.0156121 33.2968653,83.5546992 35.2421875,81.2109375 C37.1875097,78.8671758 39.1445214,76.4297002 41.1132812,73.8984375 C43.0820411,71.3671748 44.5351516,69.7734408 45.4726562,69.1171875 C46.9257885,68.0859323 48.7070207,67.2070349 50.8164062,66.4804688 C52.9257918,65.7539026 55.2695184,65.390625 57.8476562,65.390625 C59.1601628,65.390625 60.4140565,65.6953095 61.609375,66.3046875 C62.8046935,66.9140655 63.8476518,67.7812444 64.7382812,68.90625 C65.6289107,70.0312556 66.3320287,71.390617 66.8476562,72.984375 C67.3632838,74.578133 67.6210938,76.3593652 67.6210938,78.328125 C67.6210938,80.2500096 66.9765689,82.535143 65.6875,85.1835938 C64.3984311,87.8320445 63.0507883,90.1406152 61.6445312,92.109375 C60.2382742,94.0781348 58.714852,96.0468652 57.0742188,98.015625 C55.4335855,99.9843848 53.9101633,101.964834 52.5039062,103.957031 C51.0976492,105.949229 49.9257859,107.929678 48.9882812,109.898438 C48.0507766,111.867197 47.5820312,113.835928 47.5820312,115.804687 C47.5820312,117.492196 47.9921834,118.699215 48.8125,119.425781 C49.6328166,120.152347 50.9101476,120.515625 52.6445313,120.515625 C53.5820359,120.515625 54.601557,120.199222 55.703125,119.566406 C56.804693,118.933591 57.9414004,118.101568 59.1132812,117.070312 C60.2851621,116.039057 61.468744,114.890631 62.6640625,113.625 C63.859381,112.359369 65.007807,111.070319 66.109375,109.757812 C67.210943,108.445306 68.2539013,107.191412 69.2382812,105.996094 C70.2226612,104.800775 71.1132773,103.781254 71.9101562,102.9375 L76.1289062,120.164062 C74.675774,122.273448 72.8359486,124.23046 70.609375,126.035156 C68.3828014,127.839853 65.968763,129.41015 63.3671875,130.746094 C60.765612,132.082038 58.0703264,133.124996 55.28125,133.875 C52.4921736,134.625004 49.8086066,135 47.2304688,135 C43.8554519,135 41.1015732,134.589848 38.96875,133.769531 C36.8359268,132.949215 35.1601623,131.859382 33.9414062,130.5 C32.7226502,129.140618 31.8906272,127.605477 31.4453125,125.894531 C30.9999978,124.183585 30.7773438,122.414072 30.7773438,120.585938 C30.7773438,119.507807 30.9062487,118.183602 31.1640625,116.613281 C31.4218763,115.042961 31.9140589,113.273447 32.640625,111.304688 C33.3671911,109.335928 34.3867122,107.167981 35.6992188,104.800781 C37.0117253,102.433582 38.7226457,99.8906386 40.8320312,97.171875 C41.6757855,96.3281208 42.4492152,95.5664096 43.1523438,94.8867188 C43.8554723,94.2070279 44.4648412,93.5976589 44.9804688,93.0585938 C45.4960963,92.5195286 45.8945298,92.0156273 46.1757812,91.546875 C46.4570327,91.0781227 46.5976562,90.5859401 46.5976562,90.0703125 C46.5976562,89.0859326 46.4218768,88.2890655 46.0703125,87.6796875 C45.7187482,87.0703095 45.214847,86.765625 44.5585938,86.765625 C43.7617148,86.765625 42.7304751,87.2812448 41.4648438,88.3125 C40.1523372,89.3906304 38.7695385,91.1952998 37.3164062,93.7265625 L16.6445312,130.007812 C15.5195256,131.835947 14.3945369,133.124996 13.2695312,133.875 C12.1445256,134.625004 10.8320387,135 9.33203125,135 C7.31639617,135 5.72266211,134.566411 4.55078125,133.699219 C3.37890039,132.832027 2.4882843,131.660164 1.87890625,130.183594 C1.2695282,128.707024 0.88281332,126.996103 0.71875,125.050781 C0.55468668,123.105459 0.47265625,121.031261 0.47265625,118.828125 C0.47265625,116.156237 0.566405313,112.61721 0.75390625,108.210938 C0.941407187,103.804665 1.22265437,98.9648701 1.59765625,93.6914062 C1.97265813,88.4179424 2.47655934,82.8984663 3.109375,77.1328125 C3.74219066,71.3671587 4.5039018,65.7656522 5.39453125,60.328125 C5.72265789,58.4062404 6.14452867,56.0742325 6.66015625,53.3320312 C7.17578383,50.58983 7.82030863,47.6484532 8.59375,44.5078125 C9.36719137,41.3671718 10.2812447,38.0976732 11.3359375,34.6992188 C12.3906303,31.3007643 13.6093681,27.9961098 14.9921875,24.7851562 C16.3750069,21.5742027 17.9335851,18.5156395 19.6679688,15.609375 C21.4023524,12.7031105 23.3476455,10.1601671 25.5039062,7.98046875 C27.660167,5.80077035 30.0273309,4.07813133 32.6054688,2.8125 C35.1836066,1.54686867 37.9960785,0.9140625 41.0429688,0.9140625 C43.4336057,0.9140625 45.402336,1.30077738 46.9492187,2.07421875 C48.4961015,2.84766012 49.7265579,3.92577434 50.640625,5.30859375 C51.5546921,6.69141316 52.1992169,8.34374039 52.5742188,10.265625 C52.9492206,12.1875096 53.1367188,14.2734262 53.1367188,16.5234375 C53.1367188,20.5078324 52.6328175,24.796852 51.625,29.390625 C50.6171825,33.984398 49.3398515,38.5898207 47.7929688,43.2070312 C46.246086,47.8242418 44.5586029,52.3124782 42.7304688,56.671875 C40.9023346,61.0312718 39.1445397,64.9687324 37.4570312,68.484375 C35.7695228,72.0000176 34.2812564,74.9648317 32.9921875,77.3789062 C31.7031186,79.7929808 30.8476584,81.3749962 30.4257812,82.125 L22.0585938,94.640625 L23.7460938,95.6953125 Z M37.5273438,16.734375 C36.0273363,16.734375 34.7382866,17.2031203 33.6601562,18.140625 C32.5820259,19.0781297 31.5625048,20.4140538 30.6015625,22.1484375 C29.6406202,23.8828212 28.6796923,25.9921751 27.71875,28.4765625 C26.7578077,30.9609499 25.6679748,33.7265473 24.4492188,36.7734375 C23.699215,39.4453259 23.0078157,42.2109232 22.375,45.0703125 C21.7421843,47.9297018 21.1679713,50.7773296 20.6523438,53.6132812 C20.1367162,56.4492329 19.6796895,59.2499862 19.28125,62.015625 C18.8828105,64.7812638 18.5429702,67.3828003 18.2617188,69.8203125 C17.5585902,75.5859663 16.9960959,81.2577846 16.5742188,86.8359375 C17.6054739,83.742172 18.7304627,80.3789244 19.9492188,76.7460938 C21.1679748,73.1132631 22.374994,69.5273614 23.5703125,65.9882812 C24.765631,62.4492011 25.8906197,59.0976721 26.9453125,55.9335938 C28.0000053,52.7695154 28.8789027,50.0859485 29.5820312,47.8828125 C29.9101579,46.8515573 30.3789032,45.5625077 30.9882812,44.015625 C31.5976593,42.4687423 32.2539027,40.8046964 32.9570312,39.0234375 C33.6601598,37.2421786 34.3632777,35.3906346 35.0664062,33.46875 C35.7695348,31.5468654 36.4140596,29.6953214 37,27.9140625 C37.5859404,26.1328036 38.0664044,24.4687577 38.4414062,22.921875 C38.8164081,21.3749923 39.0039062,20.0625054 39.0039062,18.984375 C39.0039062,17.4843675 38.5117237,16.734375 37.5273438,16.734375 L37.5273438,16.734375 Z M142.925781,117.773438 C141.847651,119.273445 140.406259,121.03124 138.601562,123.046875 C136.796866,125.06251 134.769542,126.984366 132.519531,128.8125 C130.26952,130.640634 127.855482,132.187494 125.277344,133.453125 C122.699206,134.718756 120.121107,135.351562 117.542969,135.351562 C114.449203,135.351562 111.871104,134.355479 109.808594,132.363281 C107.746083,130.371084 105.964851,127.476581 104.464844,123.679688 C103.339838,124.992194 101.957039,126.328118 100.316406,127.6875 C98.675773,129.046882 96.8828222,130.277338 94.9375,131.378906 C92.9921778,132.480474 90.9648543,133.382809 88.8554688,134.085938 C86.7460832,134.789066 84.6367293,135.140625 82.5273438,135.140625 C80.2773325,135.140625 78.0859482,134.683598 75.953125,133.769531 C73.8203018,132.855464 71.933602,131.542977 70.2929688,129.832031 C68.6523355,128.121085 67.3398487,126.035169 66.3554688,123.574219 C65.3710888,121.113269 64.8789062,118.335953 64.8789062,115.242188 C64.8789062,111.726545 65.3710888,108.117206 66.3554688,104.414062 C67.3398487,100.710919 68.8632709,96.7031466 70.9257812,92.390625 C72.9882916,88.0781034 75.2031132,84.3515782 77.5703125,81.2109375 C79.9375118,78.0702968 82.5273297,75.3281367 85.3398438,72.984375 C88.1523578,70.6406133 91.1171719,68.7773507 94.234375,67.3945312 C97.3515781,66.0117118 100.527328,65.3203125 103.761719,65.3203125 C104.839849,65.3203125 105.683591,65.5312479 106.292969,65.953125 C106.902347,66.3750021 107.406248,66.8554661 107.804688,67.3945312 C108.203127,67.9335964 108.589842,68.4609349 108.964844,68.9765625 C109.339846,69.4921901 109.808591,69.8671863 110.371094,70.1015625 C110.933597,70.3359387 111.50781,70.4882809 112.09375,70.5585938 C112.67969,70.6289066 113.277341,70.6640625 113.886719,70.6640625 C114.402346,70.6640625 114.929685,70.6523439 115.46875,70.6289062 C116.007815,70.6054686 116.535154,70.59375 117.050781,70.59375 C117.75391,70.59375 118.410153,70.6640618 119.019531,70.8046875 C119.628909,70.9453132 120.167966,71.2499977 120.636719,71.71875 C121.105471,72.1875023 121.468749,72.8437458 121.726562,73.6875 C121.984376,74.5312542 122.113281,75.6796802 122.113281,77.1328125 C122.113281,79.3828237 121.878909,81.8788925 121.410156,84.6210938 C120.941404,87.363295 120.425784,90.1757668 119.863281,93.0585938 C119.300778,95.9414207 118.621098,99.2109192 117.824219,102.867188 C117.02734,106.523456 116.628906,109.640612 116.628906,112.21875 C116.628906,114.421886 116.828123,116.144525 117.226562,117.386719 C117.625002,118.628912 118.480462,119.25 119.792969,119.25 C120.777349,119.25 121.808588,119.003909 122.886719,118.511719 C123.964849,118.019529 125.054682,117.375004 126.15625,116.578125 C127.257818,115.781246 128.359369,114.878911 129.460938,113.871094 C130.562506,112.863276 131.605464,111.820318 132.589844,110.742188 C134.88673,108.210925 137.20702,105.351578 139.550781,102.164062 L142.925781,117.773438 Z M82.8789062,112.21875 C82.8789062,113.390631 82.9609367,114.527338 83.125,115.628906 C83.2890633,116.730474 83.5820291,117.714839 84.0039062,118.582031 C84.4257834,119.449223 84.9882777,120.152341 85.6914062,120.691406 C86.3945348,121.230471 87.2851509,121.5 88.3632812,121.5 C90.0976649,121.5 91.6679617,120.750008 93.0742188,119.25 C94.4804758,117.749992 95.6992136,115.945323 96.7304688,113.835938 C97.7617239,111.726552 98.5937468,109.546886 99.2265625,107.296875 C99.8593782,105.046864 100.26953,103.171883 100.457031,101.671875 L105.730469,78.6796875 C103.808584,78.6796875 101.933603,79.1601514 100.105469,80.1210938 C98.2773346,81.0820361 96.5546956,82.3828043 94.9375,84.0234375 C93.3203044,85.6640707 91.832038,87.539052 90.4726562,89.6484375 C89.1132745,91.757823 87.7773503,94.3593595 86.4648438,97.453125 C85.1523372,100.54689 84.2265652,103.265613 83.6875,105.609375 C83.1484348,107.953137 82.8789062,110.15624 82.8789062,112.21875 L82.8789062,112.21875 Z M135.332031,108 C137.957044,105.749989 140.089836,103.875008 141.730469,102.375 C143.371102,100.874992 145.011711,99.1289162 146.652344,97.1367188 C148.292977,95.1445213 149.593745,93.5156313 150.554688,92.25 C151.51563,90.9843687 152.652337,89.4843837 153.964844,87.75 C155.27735,86.0156163 156.871084,83.8945438 158.746094,81.3867188 C160.621103,78.8788937 163.058579,75.7500187 166.058594,72 C166.667972,71.1562458 167.347652,70.3359415 168.097656,69.5390625 C168.84766,68.7421835 169.679683,68.0273469 170.59375,67.3945312 C171.507817,66.7617156 172.515619,66.2460957 173.617188,65.8476562 C174.718756,65.4492168 175.949212,65.25 177.308594,65.25 C179.558605,65.25 181.292963,65.4960913 182.511719,65.9882812 C183.730475,66.4804712 184.621091,67.0781215 185.183594,67.78125 C185.746097,68.4843785 186.074218,69.2226524 186.167969,69.9960938 C186.261719,70.7695351 186.308594,71.4374972 186.308594,72 C186.308594,73.1250056 185.863286,74.3671807 184.972656,75.7265625 C184.082027,77.0859443 183.097662,78.3984312 182.019531,79.6640625 C180.941401,80.9296938 179.92188,82.0898385 178.960938,83.1445312 C177.999995,84.199224 177.449219,84.9843724 177.308594,85.5 C177.308594,86.9531323 177.414061,88.2773378 177.625,89.4726562 C177.835939,90.6679747 178.117186,91.839838 178.46875,92.9882812 C178.820314,94.1367245 179.183592,95.3554623 179.558594,96.6445312 C179.933596,97.9336002 180.296873,99.4218666 180.648438,101.109375 C181.000002,102.796883 181.046876,105.117173 180.789062,108.070312 C180.531249,111.023452 180.402344,113.999985 180.402344,117 C182.089852,115.874994 183.90624,114.855473 185.851562,113.941406 C187.796885,113.027339 189.824208,112.07813 191.933594,111.09375 C194.042979,110.10937 196.210926,109.019537 198.4375,107.824219 C200.664074,106.6289 202.902333,105.187508 205.152344,103.5 L205.222656,119.25 C202.316392,121.500011 198.953144,123.609365 195.132812,125.578125 C191.312481,127.546885 187.304708,129.281242 183.109375,130.78125 C178.914042,132.281258 174.671896,133.464839 170.382812,134.332031 C166.093729,135.199223 162.027363,135.632812 158.183594,135.632812 C155.417955,135.632812 152.839856,135.375003 150.449219,134.859375 C148.058582,134.343747 145.960947,133.535162 144.15625,132.433594 C142.351553,131.332026 140.886724,129.890634 139.761719,128.109375 C138.636713,126.328116 137.957032,124.171888 137.722656,121.640625 C137.066403,121.781251 136.421878,121.875 135.789062,121.921875 C135.156247,121.96875 134.535159,121.992188 133.925781,121.992188 C133.175777,121.992188 132.47266,121.96875 131.816406,121.921875 C131.160153,121.875 130.597659,121.69922 130.128906,121.394531 C129.660154,121.089842 129.285158,120.59766 129.003906,119.917969 C128.722655,119.238278 128.582031,118.265631 128.582031,117 C128.582031,115.874994 128.863278,114.832036 129.425781,113.871094 C129.988284,112.910151 130.644527,112.054691 131.394531,111.304688 C132.144535,110.554684 132.894527,109.89844 133.644531,109.335938 C134.394535,108.773435 134.957029,108.328127 135.332031,108 L135.332031,108 Z M144.332031,117 C144.894534,117 145.515622,117.351559 146.195312,118.054688 C146.875003,118.757816 147.660152,119.531246 148.550781,120.375 C149.441411,121.218754 150.47265,121.992184 151.644531,122.695312 C152.816412,123.398441 154.152336,123.75 155.652344,123.75 C157.480478,123.75 158.992182,123.445316 160.1875,122.835938 C161.382818,122.226559 162.332028,121.417974 163.035156,120.410156 C163.738285,119.402339 164.230467,118.230475 164.511719,116.894531 C164.79297,115.558587 164.933594,114.16407 164.933594,112.710938 C164.933594,111.445306 164.851563,110.156257 164.6875,108.84375 C164.523437,107.531243 164.546874,105.902353 164.757812,103.957031 C164.968751,102.011709 164.921877,100.511724 164.617188,99.4570312 C164.312498,98.4023385 164.04297,97.5000038 163.808594,96.75 L144.332031,117 Z M256.691406,119.25 C252.191384,121.875013 248.183611,124.171865 244.667969,126.140625 C241.152326,128.109385 238.023451,129.749993 235.28125,131.0625 C232.539049,132.375007 230.101573,133.359372 227.96875,134.015625 C225.835927,134.671878 223.902352,135 222.167969,135 C218.605451,135 215.464857,133.921886 212.746094,131.765625 C210.02733,129.609364 207.753915,126.503927 205.925781,122.449219 C204.097647,118.394511 202.726567,113.484404 201.8125,107.71875 C200.898433,101.953096 200.441406,95.4609736 200.441406,88.2421875 C200.441406,85.4296734 200.558593,82.4297034 200.792969,79.2421875 C201.027345,76.0546716 201.355467,72.8906407 201.777344,69.75 C200.371087,69.5624991 199.281254,69.3867196 198.507812,69.2226562 C197.734371,69.0585929 196.914067,68.8945321 196.046875,68.7304688 C195.179683,68.5664054 194.078132,68.3906259 192.742188,68.203125 C191.406243,68.0156241 189.472669,67.7812514 186.941406,67.5 C185.816401,67.3593743 184.949222,67.0898457 184.339844,66.6914062 C183.730466,66.2929668 183.285158,65.8242214 183.003906,65.2851562 C182.722655,64.7460911 182.558594,64.1835967 182.511719,63.5976562 C182.464844,63.0117158 182.441406,62.5078146 182.441406,62.0859375 C182.441406,61.1484328 182.898433,60.4335962 183.8125,59.9414062 C184.726567,59.4492163 185.89843,59.0859387 187.328125,58.8515625 C188.75782,58.6171863 190.328116,58.4882814 192.039062,58.4648438 C193.750009,58.4414061 195.390617,58.4531248 196.960938,58.5 C198.531258,58.5468752 199.937494,58.5820311 201.179688,58.6054688 C202.421881,58.6289064 203.277341,58.5937505 203.746094,58.5 C205.011725,52.1718434 206.617178,46.0429984 208.5625,40.1132812 C210.507822,34.1835641 212.687488,28.9101793 215.101562,24.2929688 C217.515637,19.6757582 220.152329,15.9726702 223.011719,13.1835938 C225.871108,10.3945173 228.871078,9 232.011719,9 C234.027354,9 235.867179,9.56249438 237.53125,10.6875 C239.195321,11.8125056 240.613275,13.3124906 241.785156,15.1875 C242.957037,17.0625094 243.859372,19.2538937 244.492188,21.7617188 C245.125003,24.2695438 245.441406,26.8827989 245.441406,29.6015625 C245.441406,31.898449 245.113285,34.324206 244.457031,36.8789062 C243.800778,39.4336065 242.910162,42.035143 241.785156,44.6835938 C240.660151,47.3320445 239.335945,50.0156114 237.8125,52.734375 C236.289055,55.4531386 234.683602,58.1484241 232.996094,60.8203125 C233.417971,60.8671877 234.121089,60.890625 235.105469,60.890625 C236.089849,60.890625 237.226556,60.9257809 238.515625,60.9960938 C239.804694,61.0664066 241.199211,61.1367184 242.699219,61.2070312 C244.199226,61.2773441 245.652337,61.3359373 247.058594,61.3828125 C248.464851,61.4296877 249.777338,61.4765623 250.996094,61.5234375 C252.21485,61.5703127 253.222652,61.6171873 254.019531,61.6640625 C254.957036,61.7109377 255.636717,62.179683 256.058594,63.0703125 C256.480471,63.960942 256.691406,65.0859307 256.691406,66.4453125 C256.691406,68.0859457 256.222661,69.4218698 255.285156,70.453125 C254.347652,71.4843802 253.316412,72 252.191406,72 L225.191406,72 C223.832024,73.8750094 222.460944,75.7148347 221.078125,77.5195312 C219.695306,79.3242278 218.417975,80.9531177 217.246094,82.40625 C217.058593,85.3125145 216.894532,88.1718609 216.753906,90.984375 C216.707031,92.2031311 216.660156,93.4570248 216.613281,94.7460938 C216.566406,96.0351627 216.519531,97.3124937 216.472656,98.578125 C216.425781,99.8437563 216.390625,101.062494 216.367188,102.234375 C216.34375,103.406256 216.332031,104.48437 216.332031,105.46875 C216.332031,108.000013 216.566404,110.132804 217.035156,111.867188 C217.503909,113.601571 218.183589,115.019526 219.074219,116.121094 C219.964848,117.222662 221.054681,118.019529 222.34375,118.511719 C223.632819,119.003909 225.074211,119.25 226.667969,119.25 C227.652349,119.25 228.882805,119.015627 230.359375,118.546875 C231.835945,118.078123 233.453116,117.433598 235.210938,116.613281 C236.968759,115.792965 238.820303,114.820318 240.765625,113.695312 C242.710947,112.570307 244.632803,111.33985 246.53125,110.003906 C248.429697,108.667962 250.246085,107.261726 251.980469,105.785156 C253.714852,104.308586 255.285149,102.796883 256.691406,101.25 L256.691406,119.25 Z M234.191406,30.234375 C234.191406,29.7187474 234.15625,29.1445344 234.085938,28.5117188 C234.015625,27.8789031 233.863282,27.2812528 233.628906,26.71875 C233.39453,26.1562472 233.031252,25.6875019 232.539062,25.3125 C232.046873,24.9374981 231.355473,24.75 230.464844,24.75 C229.246088,24.75 228.015631,25.8281142 226.773438,27.984375 C225.531244,30.1406358 224.335943,32.8945145 223.1875,36.2460938 C222.039057,39.597673 220.960943,43.2890423 219.953125,47.3203125 C218.945307,51.3515827 218.019535,55.265606 217.175781,59.0625 C217.87891,59.1562505 218.582028,59.2382809 219.285156,59.3085938 C219.988285,59.3789066 220.71484,59.460937 221.464844,59.5546875 C222.871101,57.1640505 224.33593,54.5742327 225.859375,51.7851562 C227.38282,48.9960798 228.7539,46.2539197 229.972656,43.5585938 C231.191412,40.8632678 232.199215,38.3437617 232.996094,36 C233.792973,33.6562383 234.191406,31.7343825 234.191406,30.234375 L234.191406,30.234375 Z M274.972656,135 C270.566384,135 266.710954,134.203133 263.40625,132.609375 C260.101546,131.015617 257.347667,128.871107 255.144531,126.175781 C252.941395,123.480455 251.289068,120.363299 250.1875,116.824219 C249.085932,113.285139 248.535156,109.570332 248.535156,105.679688 C248.535156,103.054674 249.027339,99.9257994 250.011719,96.2929688 C250.996099,92.6601381 252.01562,89.4375141 253.070312,86.625 C254.125005,83.8124859 255.449211,81.128919 257.042969,78.5742188 C258.636727,76.0195185 260.499989,73.769541 262.632812,71.8242188 C264.765636,69.8788965 267.156237,68.332037 269.804688,67.1835938 C272.453138,66.0351505 275.394515,65.4609375 278.628906,65.4609375 C281.253919,65.4609375 283.691395,65.8828083 285.941406,66.7265625 C288.191417,67.5703167 290.148429,68.7538986 291.8125,70.2773438 C293.476571,71.8007889 294.777339,73.6406142 295.714844,75.796875 C296.652348,77.9531358 297.121094,80.3671741 297.121094,83.0390625 C297.121094,85.945327 296.171884,89.203107 294.273438,92.8125 C292.374991,96.421893 290.160169,99.5156121 287.628906,102.09375 C285.097644,104.671888 282.085955,106.96874 278.59375,108.984375 C275.101545,111.00001 271.316427,112.570307 267.238281,113.695312 C267.94141,114.960944 268.632809,116.015621 269.3125,116.859375 C269.992191,117.703129 270.68359,118.359373 271.386719,118.828125 C272.089847,119.296877 272.828121,119.624999 273.601562,119.8125 C274.375004,120.000001 275.207027,120.09375 276.097656,120.09375 C278.91017,120.09375 281.874984,119.531256 284.992188,118.40625 C288.109391,117.281244 291.144516,115.875008 294.097656,114.1875 C297.050796,112.499992 299.839831,110.660166 302.464844,108.667969 C305.089857,106.675771 307.316397,104.789071 309.144531,103.007812 L318.214844,112.429688 C314.089823,116.695334 309.707054,120.468734 305.066406,123.75 C303.050771,125.156257 300.882824,126.539056 298.5625,127.898438 C296.242176,129.257819 293.8047,130.464838 291.25,131.519531 C288.6953,132.574224 286.046889,133.417966 283.304688,134.050781 C280.562486,134.683597 277.78517,135 274.972656,135 L274.972656,135 Z M265.621094,101.953125 C267.308602,101.953125 269.148428,101.519536 271.140625,100.652344 C273.132822,99.7851519 274.984366,98.6718818 276.695312,97.3125 C278.406259,95.9531182 280.082023,94.1250115 281.722656,91.828125 C283.363289,89.5312385 284.183594,87.63282 284.183594,86.1328125 C284.183594,84.023427 283.796879,82.2890693 283.023438,80.9296875 C282.249996,79.5703057 281.300787,78.890625 280.175781,78.890625 C278.160146,78.890625 276.437507,79.2656212 275.007812,80.015625 C273.578118,80.7656288 272.382817,81.7382753 271.421875,82.9335938 C270.460933,84.1289122 269.687503,85.4882736 269.101562,87.0117188 C268.515622,88.5351639 267.835941,90.4218638 267.0625,92.671875 C266.289059,94.9218862 265.855469,96.7734302 265.761719,98.2265625 C265.667968,99.6796948 265.621094,100.92187 265.621094,101.953125 L265.621094,101.953125 Z M319.902344,135 C317.371081,135 315.015636,133.88673 312.835938,131.660156 C310.656239,129.433583 308.757821,126.445331 307.140625,122.695312 C305.523429,118.945294 304.257817,114.597681 303.34375,109.652344 C302.429683,104.707007 301.972656,99.5156522 301.972656,94.078125 C301.972656,89.9062291 302.277341,85.3711182 302.886719,80.4726562 C303.496097,75.5741943 304.386713,70.5234635 305.558594,65.3203125 C306.730475,60.1171615 308.124992,54.8906513 309.742188,49.640625 C311.359383,44.3905987 313.18749,39.3515866 315.226562,34.5234375 C317.265635,29.6952884 319.480457,25.1836147 321.871094,20.9882812 C324.261731,16.7929478 326.769518,13.1367343 329.394531,10.0195312 C332.019544,6.90232816 334.761704,4.45313391 337.621094,2.671875 C340.480483,0.890616094 343.386704,0 346.339844,0 C348.355479,0 350.019525,0.45702668 351.332031,1.37109375 C352.644538,2.28516082 353.675777,3.49218 354.425781,4.9921875 C355.175785,6.492195 355.703123,8.19139676 356.007812,10.0898438 C356.312502,11.9882907 356.464844,13.9218652 356.464844,15.890625 C356.464844,20.296897 355.960943,24.7851334 354.953125,29.3554688 C353.945307,33.9258041 352.585946,38.5195082 350.875,43.1367188 C349.164054,47.7539293 347.183605,52.3827893 344.933594,57.0234375 C342.683583,61.6640857 340.339856,66.2695084 337.902344,70.8398438 C335.464832,75.4101791 333.015637,79.9101341 330.554688,84.3398438 C328.093738,88.7695534 325.785167,93.0937289 323.628906,97.3125 C323.39453,97.7812523 323.148439,98.3906212 322.890625,99.140625 C322.632811,99.8906288 322.38672,100.699214 322.152344,101.566406 C321.917968,102.433598 321.683595,103.35937 321.449219,104.34375 C321.214843,105.32813 321.027344,106.289058 320.886719,107.226562 L320.886719,108.210938 C320.886719,109.429694 321.015624,110.613276 321.273438,111.761719 C321.531251,112.910162 321.847654,113.941402 322.222656,114.855469 C322.597658,115.769536 322.996092,116.496091 323.417969,117.035156 C323.839846,117.574221 324.238279,117.84375 324.613281,117.84375 C325.503911,117.84375 326.523432,117.656252 327.671875,117.28125 C328.820318,116.906248 330.039056,116.402347 331.328125,115.769531 C332.617194,115.136716 333.941399,114.41016 335.300781,113.589844 C336.660163,112.769527 337.97265,111.937504 339.238281,111.09375 C342.191421,109.12499 345.28514,106.851575 348.519531,104.273438 L354.285156,119.039062 C350.11326,122.039077 345.988302,124.710926 341.910156,127.054688 C340.128897,128.039067 338.289072,129.011714 336.390625,129.972656 C334.492178,130.933599 332.582041,131.789059 330.660156,132.539062 C328.738272,133.289066 326.86329,133.886717 325.035156,134.332031 C323.207022,134.777346 321.496102,135 319.902344,135 L319.902344,135 Z M319.972656,78.75 C322.082042,74.9999813 324.320301,70.7812734 326.6875,66.09375 C329.054699,61.4062266 331.292958,56.5781498 333.402344,51.609375 C335.511729,46.6406002 337.339836,41.6836185 338.886719,36.7382812 C340.433601,31.792944 341.417967,27.1875213 341.839844,22.921875 C341.839844,21.5624932 341.804688,20.4023486 341.734375,19.4414062 C341.664062,18.4804639 341.441408,18 341.066406,18 C339.707024,18 338.242195,18.8788975 336.671875,20.6367188 C335.101555,22.39454 333.531258,24.7734225 331.960938,27.7734375 C330.390617,30.7734525 328.890632,34.2656051 327.460938,38.25 C326.031243,42.2343949 324.753912,46.47654 323.628906,50.9765625 C322.503901,55.476585 321.613285,60.105445 320.957031,64.8632812 C320.300778,69.6211175 319.972656,74.2499775 319.972656,78.75 L319.972656,78.75 Z M385.222656,80.7890625 C386.582038,83.5078261 387.601559,86.3788911 388.28125,89.4023438 C388.960941,92.4257964 389.300781,95.8359185 389.300781,99.6328125 C389.300781,102.398451 388.996097,105.187486 388.386719,108 C387.777341,110.812514 386.898443,113.531237 385.75,116.15625 C384.601557,118.781263 383.195321,121.242176 381.53125,123.539062 C379.867179,125.835949 377.968761,127.828117 375.835938,129.515625 C373.703114,131.203133 371.371106,132.539058 368.839844,133.523438 C366.308581,134.507817 363.613296,135 360.753906,135 C356.628886,135 353.101577,134.097665 350.171875,132.292969 C347.242173,130.488272 344.839853,128.132827 342.964844,125.226562 C341.089834,122.320298 339.718754,119.039081 338.851562,115.382812 C337.984371,111.726544 337.550781,108.023456 337.550781,104.273438 C337.550781,98.0859066 338.324211,92.7539286 339.871094,88.2773438 C341.417976,83.8007589 343.632798,79.9101728 346.515625,76.6054688 C349.398452,73.3007647 352.92576,70.6992282 357.097656,68.8007812 C361.269552,66.9023343 365.957005,65.953125 371.160156,65.953125 C375.613304,65.953125 379.785137,66.6445243 383.675781,68.0273438 C387.566426,69.4101632 391.210921,71.2617071 394.609375,73.5820312 C398.007829,75.9023554 401.17186,78.8202949 404.101562,82.3359375 C407.031265,85.8515801 409.761706,89.2031091 412.292969,92.390625 L410.957031,102.304688 C409.6914,100.617179 407.98048,98.7890723 405.824219,96.8203125 C403.667958,94.8515527 401.382825,92.671887 398.96875,90.28125 C396.554675,87.890613 394.175793,85.8632896 391.832031,84.1992188 C389.48827,82.5351479 387.472665,81.1406306 385.785156,80.015625 L385.222656,80.7890625 Z M363.496094,121.5 C365.089852,121.5 366.636711,120.691414 368.136719,119.074219 C369.636726,117.457023 370.949213,115.417981 372.074219,112.957031 C373.199224,110.496081 374.101559,107.519549 374.78125,104.027344 C375.460941,100.535139 375.800781,97.4297011 375.800781,94.7109375 C375.800781,92.5546767 375.63672,90.5507905 375.308594,88.6992188 C374.980467,86.847647 374.488285,85.2421943 373.832031,83.8828125 C373.175778,82.5234307 372.332036,81.4453165 371.300781,80.6484375 C370.269526,79.8515585 369.027351,79.453125 367.574219,79.453125 C365.652334,79.453125 363.824227,80.2734293 362.089844,81.9140625 C360.35546,83.5546957 358.832038,85.652331 357.519531,88.2070312 C356.207025,90.7617315 355.175785,93.585922 354.425781,96.6796875 C353.675777,99.773453 353.300781,103.265606 353.300781,107.15625 C353.300781,109.12501 353.488279,110.976554 353.863281,112.710938 C354.238283,114.445321 354.824215,115.957025 355.621094,117.246094 C356.417973,118.535163 357.47265,119.566402 358.785156,120.339844 C360.097663,121.113285 361.66796,121.5 363.496094,121.5 L363.496094,121.5 Z M456.660156,135 C454.128894,135 451.773448,133.88673 449.59375,131.660156 C447.414052,129.433583 445.515633,126.445331 443.898438,122.695312 C442.281242,118.945294 441.01563,114.597681 440.101562,109.652344 C439.187495,104.707007 438.730469,99.5156522 438.730469,94.078125 C438.730469,89.9062291 439.035153,85.3711182 439.644531,80.4726562 C440.253909,75.5741943 441.144525,70.5234635 442.316406,65.3203125 C443.488287,60.1171615 444.882804,54.8906513 446.5,49.640625 C448.117196,44.3905987 449.945302,39.3515866 451.984375,34.5234375 C454.023448,29.6952884 456.238269,25.1836147 458.628906,20.9882812 C461.019543,16.7929478 463.527331,13.1367343 466.152344,10.0195312 C468.777357,6.90232816 471.519517,4.45313391 474.378906,2.671875 C477.238296,0.890616094 480.144516,0 483.097656,0 C485.113291,0 486.777337,0.45702668 488.089844,1.37109375 C489.40235,2.28516082 490.43359,3.49218 491.183594,4.9921875 C491.933598,6.492195 492.460936,8.19139676 492.765625,10.0898438 C493.070314,11.9882907 493.222656,13.9218652 493.222656,15.890625 C493.222656,20.296897 492.718755,24.7851334 491.710938,29.3554688 C490.70312,33.9258041 489.343759,38.5195082 487.632812,43.1367188 C485.921866,47.7539293 483.941418,52.3827893 481.691406,57.0234375 C479.441395,61.6640857 477.097668,66.2695084 474.660156,70.8398438 C472.222644,75.4101791 469.77345,79.9101341 467.3125,84.3398438 C464.85155,88.7695534 462.54298,93.0937289 460.386719,97.3125 C460.152343,97.7812523 459.906251,98.3906212 459.648438,99.140625 C459.390624,99.8906288 459.144532,100.699214 458.910156,101.566406 C458.67578,102.433598 458.441407,103.35937 458.207031,104.34375 C457.972655,105.32813 457.785157,106.289058 457.644531,107.226562 L457.644531,108.210938 C457.644531,109.429694 457.773436,110.613276 458.03125,111.761719 C458.289064,112.910162 458.605467,113.941402 458.980469,114.855469 C459.355471,115.769536 459.753904,116.496091 460.175781,117.035156 C460.597658,117.574221 460.996092,117.84375 461.371094,117.84375 C462.261723,117.84375 463.281244,117.656252 464.429688,117.28125 C465.578131,116.906248 466.796869,116.402347 468.085938,115.769531 C469.375006,115.136716 470.699212,114.41016 472.058594,113.589844 C473.417976,112.769527 474.730462,111.937504 475.996094,111.09375 C478.949234,109.12499 482.042953,106.851575 485.277344,104.273438 L491.042969,119.039062 C486.871073,122.039077 482.746114,124.710926 478.667969,127.054688 C476.88671,128.039067 475.046884,129.011714 473.148438,129.972656 C471.249991,130.933599 469.339853,131.789059 467.417969,132.539062 C465.496084,133.289066 463.621103,133.886717 461.792969,134.332031 C459.964835,134.777346 458.253914,135 456.660156,135 L456.660156,135 Z M456.730469,78.75 C458.839854,74.9999813 461.078113,70.7812734 463.445313,66.09375 C465.812512,61.4062266 468.050771,56.5781498 470.160156,51.609375 C472.269542,46.6406002 474.097649,41.6836185 475.644531,36.7382812 C477.191414,31.792944 478.175779,27.1875213 478.597656,22.921875 C478.597656,21.5624932 478.5625,20.4023486 478.492188,19.4414062 C478.421875,18.4804639 478.199221,18 477.824219,18 C476.464837,18 475.000008,18.8788975 473.429688,20.6367188 C471.859367,22.39454 470.28907,24.7734225 468.71875,27.7734375 C467.14843,30.7734525 465.648445,34.2656051 464.21875,38.25 C462.789055,42.2343949 461.511724,46.47654 460.386719,50.9765625 C459.261713,55.476585 458.371097,60.105445 457.714844,64.8632812 C457.05859,69.6211175 456.730469,74.2499775 456.730469,78.75 L456.730469,78.75 Z M552.355469,117.773438 C551.277338,119.273445 549.835947,121.03124 548.03125,123.046875 C546.226553,125.06251 544.19923,126.984366 541.949219,128.8125 C539.699207,130.640634 537.285169,132.187494 534.707031,133.453125 C532.128893,134.718756 529.550794,135.351562 526.972656,135.351562 C523.878891,135.351562 521.300792,134.355479 519.238281,132.363281 C517.175771,130.371084 515.394539,127.476581 513.894531,123.679688 C512.769526,124.992194 511.386727,126.328118 509.746094,127.6875 C508.105461,129.046882 506.31251,130.277338 504.367188,131.378906 C502.421865,132.480474 500.394542,133.382809 498.285156,134.085938 C496.175771,134.789066 494.066417,135.140625 491.957031,135.140625 C489.70702,135.140625 487.515636,134.683598 485.382812,133.769531 C483.249989,132.855464 481.363289,131.542977 479.722656,129.832031 C478.082023,128.121085 476.769536,126.035169 475.785156,123.574219 C474.800776,121.113269 474.308594,118.335953 474.308594,115.242188 C474.308594,111.726545 474.800776,108.117206 475.785156,104.414062 C476.769536,100.710919 478.292958,96.7031466 480.355469,92.390625 C482.417979,88.0781034 484.632801,84.3515782 487,81.2109375 C489.367199,78.0702968 491.957017,75.3281367 494.769531,72.984375 C497.582045,70.6406133 500.546859,68.7773507 503.664062,67.3945312 C506.781266,66.0117118 509.957015,65.3203125 513.191406,65.3203125 C514.269537,65.3203125 515.113278,65.5312479 515.722656,65.953125 C516.332034,66.3750021 516.835936,66.8554661 517.234375,67.3945312 C517.632814,67.9335964 518.019529,68.4609349 518.394531,68.9765625 C518.769533,69.4921901 519.238278,69.8671863 519.800781,70.1015625 C520.363284,70.3359387 520.937497,70.4882809 521.523438,70.5585938 C522.109378,70.6289066 522.707028,70.6640625 523.316406,70.6640625 C523.832034,70.6640625 524.359372,70.6523439 524.898438,70.6289062 C525.437503,70.6054686 525.964841,70.59375 526.480469,70.59375 C527.183597,70.59375 527.839841,70.6640618 528.449219,70.8046875 C529.058597,70.9453132 529.597654,71.2499977 530.066406,71.71875 C530.535159,72.1875023 530.898436,72.8437458 531.15625,73.6875 C531.414064,74.5312542 531.542969,75.6796802 531.542969,77.1328125 C531.542969,79.3828237 531.308596,81.8788925 530.839844,84.6210938 C530.371091,87.363295 529.855472,90.1757668 529.292969,93.0585938 C528.730466,95.9414207 528.050785,99.2109192 527.253906,102.867188 C526.457027,106.523456 526.058594,109.640612 526.058594,112.21875 C526.058594,114.421886 526.257811,116.144525 526.65625,117.386719 C527.054689,118.628912 527.91015,119.25 529.222656,119.25 C530.207036,119.25 531.238276,119.003909 532.316406,118.511719 C533.394537,118.019529 534.484369,117.375004 535.585938,116.578125 C536.687506,115.781246 537.789057,114.878911 538.890625,113.871094 C539.992193,112.863276 541.035151,111.820318 542.019531,110.742188 C544.316418,108.210925 546.636707,105.351578 548.980469,102.164062 L552.355469,117.773438 Z M492.308594,112.21875 C492.308594,113.390631 492.390624,114.527338 492.554688,115.628906 C492.718751,116.730474 493.011717,117.714839 493.433594,118.582031 C493.855471,119.449223 494.417965,120.152341 495.121094,120.691406 C495.824222,121.230471 496.714838,121.5 497.792969,121.5 C499.527352,121.5 501.097649,120.750008 502.503906,119.25 C503.910163,117.749992 505.128901,115.945323 506.160156,113.835938 C507.191411,111.726552 508.023434,109.546886 508.65625,107.296875 C509.289066,105.046864 509.699218,103.171883 509.886719,101.671875 L515.160156,78.6796875 C513.238272,78.6796875 511.36329,79.1601514 509.535156,80.1210938 C507.707022,81.0820361 505.984383,82.3828043 504.367188,84.0234375 C502.749992,85.6640707 501.261726,87.539052 499.902344,89.6484375 C498.542962,91.757823 497.207038,94.3593595 495.894531,97.453125 C494.582025,100.54689 493.656253,103.265613 493.117188,105.609375 C492.578122,107.953137 492.308594,110.15624 492.308594,112.21875 L492.308594,112.21875 Z M569.792969,78.3984375 C572.417982,75.1171711 574.820302,72.4804787 577,70.4882812 C579.179698,68.4960838 581.347645,67.5 583.503906,67.5 C586.269545,67.5 588.730458,68.1093689 590.886719,69.328125 C593.04298,70.5468811 594.871086,72.1640524 596.371094,74.1796875 C597.871101,76.1953226 599.019527,78.5156119 599.816406,81.140625 C600.613285,83.7656381 601.011719,86.5077982 601.011719,89.3671875 C601.011719,91.7578245 600.91797,94.0195206 600.730469,96.1523438 C600.542968,98.2851669 600.203127,100.371084 599.710938,102.410156 C599.218748,104.449229 598.539067,106.476552 597.671875,108.492188 C596.804683,110.507823 595.667976,112.593739 594.261719,114.75 C595.949227,113.76562 597.660148,112.804692 599.394531,111.867188 C601.128915,110.929683 602.874991,109.898443 604.632812,108.773438 C606.390634,107.648432 608.160147,106.394538 609.941406,105.011719 C611.722665,103.628899 613.550772,102.000009 615.425781,100.125 L620.839844,111.726562 C618.261706,114.070324 615.695325,116.109366 613.140625,117.84375 C610.585925,119.578134 607.960951,121.089837 605.265625,122.378906 C602.570299,123.667975 599.757827,124.781245 596.828125,125.71875 C593.898423,126.656255 590.792985,127.499996 587.511719,128.25 C586.71484,129.046879 585.625007,129.843746 584.242188,130.640625 C582.859368,131.437504 581.488288,132.164059 580.128906,132.820312 C578.582024,133.570316 576.917978,134.296871 575.136719,135 L573.378906,135 C566.06637,135 562.105472,134.906251 561.496094,134.71875 C555.871066,133.171867 552.332039,131.953129 550.878906,131.0625 C548.207018,129.328116 545.628919,127.546884 543.144531,125.71875 C543.285157,121.921856 543.566404,117.632836 543.988281,112.851562 C544.316408,108.679667 544.80859,103.59378 545.464844,97.59375 C546.402348,88.7343307 547.292965,82.2422081 548.136719,78.1171875 C548.558596,73.4765393 549.12109,68.3437781 549.824219,62.71875 C550.386722,58.4062284 551.289056,53.027376 552.53125,46.5820312 C553.773444,40.1366865 555.343741,34.1836211 557.242188,28.7226562 C559.140634,23.2616914 561.249988,18.3984588 563.570312,14.1328125 C565.890637,9.86716617 568.421861,6.44532539 571.164062,3.8671875 C573.906264,1.28904961 576.871078,0 580.058594,0 C583.621112,0 586.480458,0.609368906 588.636719,1.828125 C590.79298,3.04688109 592.457025,4.69920832 593.628906,6.78515625 C594.800787,8.87110418 595.574217,11.3202984 595.949219,14.1328125 C596.324221,16.9453266 596.511719,19.9452966 596.511719,23.1328125 C596.511719,27.5859598 595.679696,32.1796638 594.015625,36.9140625 C592.351554,41.6484612 590.183607,46.3710702 587.511719,51.0820312 C584.83983,55.7929923 581.851579,60.398415 578.546875,64.8984375 C575.242171,69.39846 571.949235,73.6406051 568.667969,77.625 L569.792969,78.3984375 Z M576.121094,83.53125 C574.480461,83.53125 572.839852,83.8710904 571.199219,84.5507812 C569.558586,85.2304721 568.035163,86.2851491 566.628906,87.7148438 C565.222649,89.1445384 563.980474,90.9843638 562.902344,93.234375 C560.792958,97.5937718 559.996091,100.26562 560.511719,101.25 C560.511719,101.34375 560.16016,104.156222 559.457031,109.6875 C559.17578,111.796886 558.941407,113.671867 558.753906,115.3125 C558.566405,117.187509 558.402344,118.945304 558.261719,120.585938 C559.808601,121.05469 561.355461,121.453123 562.902344,121.78125 C564.261726,122.062501 565.691399,122.085939 567.191406,121.851562 C568.691414,121.617186 570.121087,121.5 571.480469,121.5 C573.074227,121.5 574.527337,121.031255 575.839844,120.09375 C577.15235,119.156245 578.324214,117.902352 579.355469,116.332031 C580.386724,114.761711 581.27734,112.96876 582.027344,110.953125 C582.777348,108.93749 583.386716,106.839855 583.855469,104.660156 C584.324221,102.480458 584.67578,100.324229 584.910156,98.1914062 C585.144532,96.0585831 585.261719,94.1015714 585.261719,92.3203125 C585.261719,91.1484316 585.132814,90.0351615 584.875,88.9804688 C584.617186,87.925776 584.148441,87.000004 583.46875,86.203125 C582.789059,85.406246 581.851568,84.7617212 580.65625,84.2695312 C579.460932,83.7773413 577.949228,83.53125 576.121094,83.53125 L576.121094,83.53125 Z M583.011719,19.125 C583.011719,18.9374991 582.976563,18.5390655 582.90625,17.9296875 C582.835937,17.3203095 582.671876,16.6875033 582.414062,16.03125 C582.156249,15.3749967 581.792971,14.7890651 581.324219,14.2734375 C580.855466,13.7578099 580.22266,13.5 579.425781,13.5 C578.488277,13.5 577.51563,14.1679621 576.507812,15.5039062 C575.499995,16.8398504 574.503911,18.6445199 573.519531,20.9179688 C572.535151,23.1914176 571.574223,25.8163914 570.636719,28.7929688 C569.699214,31.7695461 568.785161,34.8867025 567.894531,38.1445312 C567.003902,41.40236 566.171879,44.7187331 565.398438,48.09375 C564.624996,51.4687669 563.921878,54.6679536 563.289062,57.6914062 C562.656247,60.7148589 562.105471,63.4804562 561.636719,65.9882812 C561.167966,68.4961063 560.79297,70.5234298 560.511719,72.0703125 C561.77735,69.6328003 563.195305,67.1015756 564.765625,64.4765625 C566.335945,61.8515494 567.917961,59.1211079 569.511719,56.2851562 C571.105477,53.4492046 572.664055,50.5429836 574.1875,47.5664062 C575.710945,44.5898289 577.093744,41.5429843 578.335938,38.4257812 C579.578131,35.3085782 580.609371,32.1445473 581.429688,28.9335938 C582.250004,25.7226402 582.777343,22.4531416 583.011719,19.125 L583.011719,19.125 Z M612.964844,108 C615.589857,105.749989 617.722648,103.875008 619.363281,102.375 C621.003914,100.874992 622.644523,99.1289162 624.285156,97.1367188 C625.925789,95.1445213 627.226558,93.5156313 628.1875,92.25 C629.148442,90.9843687 630.28515,89.4843837 631.597656,87.75 C632.910163,86.0156163 634.503897,83.8945438 636.378906,81.3867188 C638.253916,78.8788937 640.691391,75.7500187 643.691406,72 C644.300784,71.1562458 644.980465,70.3359415 645.730469,69.5390625 C646.480472,68.7421835 647.312495,68.0273469 648.226562,67.3945312 C649.14063,66.7617156 650.148432,66.2460957 651.25,65.8476562 C652.351568,65.4492168 653.582024,65.25 654.941406,65.25 C657.191417,65.25 658.925775,65.4960913 660.144531,65.9882812 C661.363287,66.4804712 662.253903,67.0781215 662.816406,67.78125 C663.378909,68.4843785 663.707031,69.2226524 663.800781,69.9960938 C663.894532,70.7695351 663.941406,71.4374972 663.941406,72 C663.941406,73.1250056 663.496098,74.3671807 662.605469,75.7265625 C661.714839,77.0859443 660.730474,78.3984312 659.652344,79.6640625 C658.574213,80.9296938 657.554692,82.0898385 656.59375,83.1445312 C655.632808,84.199224 655.082032,84.9843724 654.941406,85.5 C654.941406,86.9531323 655.046874,88.2773378 655.257812,89.4726562 C655.468751,90.6679747 655.749998,91.839838 656.101562,92.9882812 C656.453127,94.1367245 656.816404,95.3554623 657.191406,96.6445312 C657.566408,97.9336002 657.929686,99.4218666 658.28125,101.109375 C658.632814,102.796883 658.679689,105.117173 658.421875,108.070312 C658.164061,111.023452 658.035156,113.999985 658.035156,117 C659.722665,115.874994 661.539053,114.855473 663.484375,113.941406 C665.429697,113.027339 667.457021,112.07813 669.566406,111.09375 C671.675792,110.10937 673.843739,109.019537 676.070312,107.824219 C678.296886,106.6289 680.535145,105.187508 682.785156,103.5 L682.855469,119.25 C679.949204,121.500011 676.585957,123.609365 672.765625,125.578125 C668.945293,127.546885 664.937521,129.281242 660.742188,130.78125 C656.546854,132.281258 652.304709,133.464839 648.015625,134.332031 C643.726541,135.199223 639.660175,135.632812 635.816406,135.632812 C633.050767,135.632812 630.472668,135.375003 628.082031,134.859375 C625.691394,134.343747 623.593759,133.535162 621.789062,132.433594 C619.984366,131.332026 618.519537,129.890634 617.394531,128.109375 C616.269526,126.328116 615.589845,124.171888 615.355469,121.640625 C614.699215,121.781251 614.054691,121.875 613.421875,121.921875 C612.789059,121.96875 612.167972,121.992188 611.558594,121.992188 C610.80859,121.992188 610.105472,121.96875 609.449219,121.921875 C608.792965,121.875 608.230471,121.69922 607.761719,121.394531 C607.292966,121.089842 606.91797,120.59766 606.636719,119.917969 C606.355467,119.238278 606.214844,118.265631 606.214844,117 C606.214844,115.874994 606.496091,114.832036 607.058594,113.871094 C607.621097,112.910151 608.27734,112.054691 609.027344,111.304688 C609.777348,110.554684 610.52734,109.89844 611.277344,109.335938 C612.027347,108.773435 612.589842,108.328127 612.964844,108 L612.964844,108 Z M621.964844,117 C622.527347,117 623.148434,117.351559 623.828125,118.054688 C624.507816,118.757816 625.292964,119.531246 626.183594,120.375 C627.074223,121.218754 628.105463,121.992184 629.277344,122.695312 C630.449225,123.398441 631.785149,123.75 633.285156,123.75 C635.11329,123.75 636.624994,123.445316 637.820312,122.835938 C639.015631,122.226559 639.96484,121.417974 640.667969,120.410156 C641.371097,119.402339 641.86328,118.230475 642.144531,116.894531 C642.425783,115.558587 642.566406,114.16407 642.566406,112.710938 C642.566406,111.445306 642.484376,110.156257 642.320312,108.84375 C642.156249,107.531243 642.179686,105.902353 642.390625,103.957031 C642.601564,102.011709 642.554689,100.511724 642.25,99.4570312 C641.945311,98.4023385 641.675782,97.5000038 641.441406,96.75 L621.964844,117 Z" id="kastelo-labs" fill="#000000" sketch:type="MSShapeGroup"></path>
    </g>
</svg>
